<?xml version="1.0" encoding="UTF-8"?> <svg xmlns="http://www.w3.org/2000/svg" xmlns:xlink="http://www.w3.org/1999/xlink" width="41px" height="43px" viewBox="0 0 41 43" version="1.1"><!-- Generator: Sketch 63.1 (92452) - https://sketch.com --><title>Group 19</title><desc>Created with Sketch.</desc><g id="desktop" stroke="none" stroke-width="1" fill="none" fill-rule="evenodd"><g id="about" transform="translate(-148.000000, -1630.000000)"><g id="Group-19" transform="translate(168.500000, 1651.500000) scale(-1, 1) translate(-168.500000, -1651.500000) translate(149.000000, 1631.000000)"><path d="M7,7.5 C7,12.668004 9.90957535,15 13.5,15 C17.0904246,15 20,12.668004 20,7.5 C20,2.33199599 17.0904246,0 13.5,0 C9.90957535,0 7,2.33199599 7,7.5 Z" id="Stroke-1" stroke="#09507C" stroke-width="1.5"></path><path d="M20,16 L9.6623876,16 C7.56885144,16 5.69699712,17.4419975 4.96974495,19.6145322 L0,32" id="Stroke-3" stroke="#09507C" stroke-width="1.5"></path><path d="M14,12.5 C14,18.3550502 17.1337273,21 21,21 C24.8662727,21 28,18.3550502 28,12.5 C28,6.64381271 24.8662727,4 21,4 C17.1337273,4 14,6.64381271 14,12.5" id="Fill-5" fill="#F58832"></path><path d="M26,20 L15.6612566,20 C13.5688514,20 11.6969971,21.4419975 10.969745,23.6156544 L6,36" id="Stroke-7" stroke="#09507C" stroke-width="1.5"></path><path d="M21,16.5 C21,21.668004 23.9095754,24 27.5,24 C31.0893422,24 34,21.668004 34,16.5 C34,11.331996 31.0893422,9 27.5,9 C23.9095754,9 21,11.331996 21,16.5" id="Fill-9" fill="#F5F5F4"></path><path d="M21,16.5 C21,21.668004 23.9095754,24 27.5,24 C31.0893422,24 34,21.668004 34,16.5 C34,11.331996 31.0893422,9 27.5,9 C23.9095754,9 21,11.331996 21,16.5 Z" id="Stroke-11" stroke="#09507C" stroke-width="1.5"></path><path d="M39,32.9225698 L37.566433,28.6145322 C36.8428979,26.4431197 34.9806111,25 32.8977755,25 L22.613001,25 C20.5301653,25 18.6678785,26.4431197 17.9454687,28.6145322 L13,41" id="Stroke-13" stroke="#09507C" stroke-width="1.5"></path><path d="M24,10 C24,10 30.0414334,11.7690225 29.793953,15.5438657 C29.600224,18.5075945 29.6707727,21.3234583 33,20.9698681" id="Stroke-15" stroke="#09507C" stroke-width="1.5"></path><path d="M32,10.2412678 C32.4268661,8.63876928 34.0930561,7.67940682 35.7223161,8.0981931 C37.3515761,8.51804772 38.3258737,10.1568696 37.9000937,11.7593681 C37.4732276,13.3618666 35.8070376,14.3212291 34.1777776,13.9013745" id="Stroke-17" stroke="#09507C" stroke-width="1.5"></path></g></g></g></svg> 