<?xml version="1.0" encoding="UTF-8"?> <svg xmlns="http://www.w3.org/2000/svg" xmlns:xlink="http://www.w3.org/1999/xlink" width="39px" height="39px" viewBox="0 0 39 39" version="1.1"><!-- Generator: Sketch 63.1 (92452) - https://sketch.com --><title>Group 30</title><desc>Created with Sketch.</desc><g id="desktop" stroke="none" stroke-width="1" fill="none" fill-rule="evenodd"><g id="about" transform="translate(-147.000000, -605.000000)"><g id="Group-4" transform="translate(70.000000, 504.000000)"><g id="Group-8"><g id="Group-30" transform="translate(77.000000, 101.000000)"><path d="M29.2573,19.45 C29.2573,24.867 24.8663,29.258 19.4503,29.258 C14.0343,29.258 9.6433,24.867 9.6433,19.45 C9.6433,14.034 14.0343,9.643 19.4503,9.643 C24.8663,9.643 29.2573,14.034 29.2573,19.45 Z" id="Stroke-1" stroke="#09507C" stroke-width="1.5"></path><polygon id="Fill-3" fill="#F58832" points="19.4501 22.1385 15.6151 24.8085 16.9681 20.3355 13.2441 17.5125 17.9161 17.4165 19.4501 13.0025 20.9851 17.4165 25.6571 17.5125 21.9331 20.3355 23.2861 24.8085"></polygon><line x1="19.4501" y1="5.7303" x2="19.4501" y2="0.0003" id="Stroke-5" stroke="#09507C" stroke-width="1.5"></line><g id="Group-9" transform="translate(18.000000, 32.900700)" stroke="#09507C" stroke-width="1.5"><line x1="1.4501" y1="6.0005" x2="1.4501" y2="0.2705" id="Stroke-7"></line></g><line x1="33.1704" y1="19.45" x2="38.9004" y2="19.45" id="Stroke-10" stroke="#09507C" stroke-width="1.5"></line><line x1="0" y1="19.45" x2="5.73" y2="19.45" id="Stroke-12" stroke="#09507C" stroke-width="1.5"></line><line x1="12.5903" y1="7.5682" x2="9.7253" y2="2.6062" id="Stroke-14" stroke="#09507C" stroke-width="1.5"></line><line x1="29.1752" y1="36.2947" x2="26.3102" y2="31.3327" id="Stroke-16" stroke="#09507C" stroke-width="1.5"></line><line x1="31.3325" y1="12.5906" x2="36.2945" y2="9.7256" id="Stroke-18" stroke="#09507C" stroke-width="1.5"></line><line x1="2.6059" y1="29.1756" x2="7.5679" y2="26.3106" id="Stroke-20" stroke="#09507C" stroke-width="1.5"></line><line x1="7.5683" y1="12.5906" x2="2.6063" y2="9.7256" id="Stroke-22" stroke="#09507C" stroke-width="1.5"></line><line x1="36.2949" y1="29.1756" x2="31.3329" y2="26.3106" id="Stroke-24" stroke="#09507C" stroke-width="1.5"></line><line x1="26.3105" y1="7.5682" x2="29.1755" y2="2.6062" id="Stroke-26" stroke="#09507C" stroke-width="1.5"></line><line x1="9.7251" y1="36.2947" x2="12.5901" y2="31.3327" id="Stroke-28" stroke="#09507C" stroke-width="1.5"></line></g></g></g></g></g></svg> 